PathFileType	4	(X/Y/Z)	/Users/itak/Documents/Research/Walk-IL/dataset/trc/00482_00167.trc
DataRate	CameraRate	NumFrames	NumMarkers	Units	OrigDataRate	OrigDataStartFrame	OrigNumFrames
100.000000	100.000000	4	53	mm	100.000000	138	552
Frame#	Time	RPSI			LPSI			L3			STRN			T10			C7			CLAV			RBAK			LBAK			LSHO			LUPA			LAEL			LAOL			LWTS			LWPS			LFRA			LIFD			LHPS			LHTS			RSHO			RUPA			RAEL			RAOL			RWTS			RWPS			RFRA			RIFD			RHTS			RHPS			RBHD			LFHD			RFHD			LBHD			LHIP			RHIP			RASI			LASI			LKNE			LTHI			LANK			LTIP			LTOE			LMT1			LMT5			LHEE			RKNE			RTHI			RANK			RTIP			RTOE			RMT1			RMT5			RHEE			
		X1	Y1	Z1	X2	Y2	Z2	X3	Y3	Z3	X4	Y4	Z4	X5	Y5	Z5	X6	Y6	Z6	X7	Y7	Z7	X8	Y8	Z8	X9	Y9	Z9	X10	Y10	Z10	X11	Y11	Z11	X12	Y12	Z12	X13	Y13	Z13	X14	Y14	Z14	X15	Y15	Z15	X16	Y16	Z16	X17	Y17	Z17	X18	Y18	Z18	X19	Y19	Z19	X20	Y20	Z20	X21	Y21	Z21	X22	Y22	Z22	X23	Y23	Z23	X24	Y24	Z24	X25	Y25	Z25	X26	Y26	Z26	X27	Y27	Z27	X28	Y28	Z28	X29	Y29	Z29	X30	Y30	Z30	X31	Y31	Z31	X32	Y32	Z32	X33	Y33	Z33	X34	Y34	Z34	X35	Y35	Z35	X36	Y36	Z36	X37	Y37	Z37	X38	Y38	Z38	X39	Y39	Z39	X40	Y40	Z40	X41	Y41	Z41	X42	Y42	Z42	X43	Y43	Z43	X44	Y44	Z44	X45	Y45	Z45	X46	Y46	Z46	X47	Y47	Z47	X48	Y48	Z48	X49	Y49	Z49	X50	Y50	Z50	X51	Y51	Z51	X52	Y52	Z52	X53	Y53	Z53	

139	1.38	-1126.330444335938	936.8764038085938	-186.4233093261719	-1107.299560546875	948.6672973632812	-327.2978820800781	-1100.407958984375	1046.929809570312	-253.2663879394531	-805.8280639648438	1223.6142578125	-233.2557678222656	-1101.21240234375	1172.651733398438	-262.6644287109375	-1011.072387695312	1433.923828125	-244.7579345703125	-832.944580078125	1339.433471679688	-239.819580078125	-1092.011474609375	1320.712890625	-157.8468780517578	-1036.739379882812	1389.7626953125	-348.3571166992188	-923.161376953125	1400.561767578125	-416.4153137207031	-928.1484985351562	1283.093872070312	-516.5125732421875	-915.87646484375	1062.689697265625	-544.3257446289062	-1006.747314453125	1058.003173828125	-495.2272338867188	-855.65576171875	860.0692749023438	-477.2470092773438	-893.2094116210938	841.9464111328125	-539.0556030273438	-898.3386840820312	973.8350830078125	-546.304931640625	-858.167236328125	700.4429931640625	-473.8174743652344	-892.9884033203125	764.2189331054688	-531.7398071289062	-845.2633666992188	774.0285034179688	-477.5026550292969	-962.1199340820312	1401.646728515625	-78.77363586425781	-994.54296875	1348.298706054688	-5.384963512420654	-1036.8203125	1074.599731445312	75.39119720458984	-1083.990234375	1061.616577148438	28.37848091125488	-968.564453125	852.5283813476562	69.75768280029297	-1046.197143554688	853.715087890625	112.8896560668945	-1045.3671875	1017.853820800781	91.02762603759766	-990.937744140625	700.291259765625	93.46298980712891	-969.4721069335938	757.310791015625	92.56796264648438	-1042.577392578125	766.3272705078125	120.9862442016602	-911.8005981445312	1620.59619140625	-141.3261566162109	-769.6792602539062	1626.946411132812	-291.5421752929688	-775.1337280273438	1623.238159179688	-161.3297271728516	-920.2679443359375	1631.75439453125	-318.4367370605469	-964.68603515625	848.1356201171875	-433.7477416992188	-1007.841674804688	844.4261474609375	-31.84206581115723	-912.8840942382812	892.3781127929688	-95.85574340820312	-871.928466796875	878.2217407226562	-347.5126342773438	-1024.587158203125	433.8512573242188	-389.1322326660156	-971.0186157226562	580.4293823242188	-409.2967834472656	-1165.461791992188	39.47916793823242	-377.2416381835938	-1057.484130859375	286.3516235351562	-398.05615234375	-940.33984375	47.46472930908203	-287.8847351074219	-1018.787719726562	52.07343673706055	-266.3851928710938	-1011.819763183594	47.21391677856445	-379.4559326171875	-1215.586181640625	46.495849609375	-317.1720581054688	-830.7733154296875	497.3221130371094	-9.768453598022461	-915.0811157226562	735.9342651367188	-12.55469608306885	-1097.34228515625	149.3895874023438	29.33850479125977	-894.9025268554688	371.0934753417969	14.73247528076172	-922.8792724609375	52.81825637817383	-4.752915382385254	-971.9183349609375	63.3798942565918	-45.64872360229492	-993.3334350585938	80.34526062011719	58.47228622436523	-1149.9609375	180.5950775146484	-20.15124893188477	
140	1.39	-1122.417114257812	935.9347534179688	-186.9297332763672	-1103.908203125	947.6043090820312	-327.8628234863281	-1097.044921875	1046.42041015625	-254.4760894775391	-801.7587280273438	1222.740600585938	-234.4361572265625	-1097.40185546875	1172.132080078125	-264.2642211914062	-1006.668090820312	1433.312866210938	-246.2404632568359	-828.7918701171875	1338.597290039062	-240.8426208496094	-1087.992309570312	1320.12060546875	-159.6871337890625	-1032.146362304688	1389.227661132812	-350.0323486328125	-918.2560424804688	1399.67431640625	-417.6634521484375	-922.5641479492188	1282.192016601562	-517.763427734375	-909.741455078125	1061.870727539062	-545.9072875976562	-1001.1552734375	1056.943359375	-497.8201904296875	-849.2066650390625	859.62744140625	-478.033447265625	-886.368896484375	841.2119750976562	-540.0155029296875	-891.8648681640625	973.0748901367188	-547.591064453125	-851.5870361328125	699.9398193359375	-474.2783813476562	-886.0528564453125	763.5260009765625	-532.5242309570312	-838.7105102539062	773.5474853515625	-478.0043029785156	-958.35107421875	1400.889404296875	-80.08830261230469	-991.3519287109375	1347.603881835938	-6.948763847351074	-1035.496704101562	1074.083740234375	73.36129760742188	-1082.357788085938	1061.416381835938	25.95129203796387	-968.534912109375	851.595458984375	68.07122039794922	-1046.430419921875	853.25634765625	110.5963439941406	-1044.501220703125	1017.396423339844	88.86106872558594	-991.9257202148438	699.510498046875	91.42290496826172	-970.1845092773438	756.3900146484375	90.714599609375	-1043.415649414062	765.8237915039062	118.6553344726562	-906.453125	1619.950073242188	-142.3495178222656	-764.5101318359375	1625.450317382812	-292.7486877441406	-769.8338623046875	1621.778198242188	-162.5209655761719	-915.08984375	1631.108764648438	-319.499267578125	-961.610595703125	847.2061157226562	-434.6412048339844	-1002.682373046875	845.1182861328125	-32.13637924194336	-908.3590087890625	893.1482543945312	-97.44071197509766	-868.474853515625	877.43994140625	-349.0176696777344	-1022.608642578125	433.3285217285156	-389.297119140625	-968.5925903320312	579.7244262695312	-409.7909851074219	-1165.495727539062	39.57077789306641	-377.1460876464844	-1056.35986328125	285.9295349121094	-398.1316833496094	-940.3919067382812	47.22339630126953	-288.0052490234375	-1018.787231445312	51.95043563842773	-266.462890625	-1011.732971191406	47.13235473632812	-379.5771484375	-1215.53662109375	46.57787704467773	-317.0534973144531	-819.3140869140625	500.8013610839844	-10.02006053924561	-908.4995727539062	737.8012084960938	-12.90758991241455	-1082.067749023438	150.4391174316406	27.20909118652344	-881.7194213867188	373.4081726074219	13.87898063659668	-906.3287963867188	55.31563568115234	-6.69165563583374	-955.8040771484375	65.64023590087891	-47.53618621826172	-977.1980590820312	82.84632110595703	56.63003158569336	-1135.123046875	180.6904144287109	-22.25311470031738	
141	1.4	-1118.243896484375	935.263671875	-187.4098663330078	-1100.240844726562	946.6419067382812	-328.3948669433594	-1093.380737304688	1046.028442382812	-255.507080078125	-797.4871826171875	1221.9150390625	-235.5722961425781	-1093.404296875	1171.701904296875	-265.6849365234375	-1002.089782714844	1432.749633789062	-247.54541015625	-824.4555053710938	1337.803588867188	-241.7862701416016	-1083.76416015625	1319.584594726562	-161.313720703125	-1027.427490234375	1388.752685546875	-351.5067443847656	-913.2504272460938	1398.89453125	-418.7899169921875	-916.926513671875	1281.376586914062	-518.85595703125	-903.4119873046875	1061.176391601562	-547.3130493164062	-995.3416748046875	1055.974609375	-500.2209777832031	-842.5845947265625	859.2787475585938	-478.8025817871094	-879.3795166015625	840.611572265625	-540.9500122070312	-885.208740234375	972.4421997070312	-548.7511596679688	-844.7910766601562	699.51513671875	-474.8426513671875	-878.94287109375	762.9691772460938	-533.3587036132812	-831.961181640625	773.1593627929688	-478.5719604492188	-954.29833984375	1400.109252929688	-81.26364135742188	-987.83935546875	1346.871948242188	-8.363856315612793	-1033.964599609375	1073.548217773438	71.35927581787109	-1080.55029296875	1061.247314453125	23.57184410095215	-968.4447631835938	850.6007690429688	66.33664703369141	-1046.607055664062	852.7879638671875	108.2699203491211	-1043.47216796875	1016.927368164062	86.71635437011719	-993.0022583007812	698.6918334960938	89.3013916015625	-970.9384765625	755.4065551757812	88.79354095458984	-1044.278076171875	765.3178100585938	116.2669830322266	-900.9751586914062	1619.357055664062	-143.2424468994141	-759.229736328125	1624.030151367188	-293.8312683105469	-764.4215698242188	1620.4111328125	-163.5926818847656	-909.7987670898438	1630.490966796875	-320.4176635742188	-958.307373046875	846.23291015625	-435.4335632324219	-997.4163208007812	845.9010620117188	-32.41799545288086	-903.6170654296875	893.90576171875	-98.91515350341797	-864.8114624023438	876.6389770507812	-350.4349365234375	-1020.364074707031	432.7690124511719	-389.3360595703125	-965.9193725585938	578.9854736328125	-410.1906127929688	-1165.524047851562	39.68292999267578	-377.0347900390625	-1055.0849609375	285.4558410644531	-398.1039428710938	-940.4163818359375	46.9153938293457	-288.1134948730469	-1018.729736328125	51.83251571655273	-266.5014038085938	-1011.620300292969	47.02495956420898	-379.6950073242188	-1215.463134765625	46.69162750244141	-316.9219055175781	-808.6445922851562	504.1265258789062	-10.22528648376465	-902.2763671875	739.5739135742188	-13.2761116027832	-1065.535034179688	149.7238006591797	25.08229637145996	-868.796875	375.2901306152344	13.13496875762939	-887.4786376953125	57.91982269287109	-7.976974964141846	-937.337890625	67.57090759277344	-48.96290588378906	-959.3076782226562	84.61037445068359	55.12906646728516	-1119.09619140625	178.5113983154297	-24.55380249023438	
142	1.41	-1113.843872070312	934.834716796875	-187.8819732666016	-1096.305297851562	945.7738037109375	-328.9089050292969	-1089.397094726562	1045.744140625	-256.3927612304688	-793.0106201171875	1221.138671875	-236.6650238037109	-1089.222045898438	1171.361083984375	-266.9567565917969	-997.3313598632812	1432.228515625	-248.6875457763672	-819.9257202148438	1337.055786132812	-242.6597137451172	-1079.32177734375	1319.108032226562	-162.7484436035156	-1022.574340820312	1388.33837890625	-352.7934875488281	-908.1453857421875	1398.2451171875	-419.8028869628906	-911.2517700195312	1280.6865234375	-519.8159790039062	-896.917236328125	1060.635864257812	-548.5399780273438	-989.3161010742188	1055.130737304688	-502.3872985839844	-835.7840576171875	859.0511474609375	-479.541259765625	-872.249755859375	840.1707153320312	-541.8446655273438	-878.3949584960938	971.965087890625	-549.7819213867188	-837.7704467773438	699.1940307617188	-475.5016174316406	-871.6568603515625	762.5745849609375	-534.2341918945312	-825.0194091796875	772.8881225585938	-479.1921691894531	-949.96337890625	1399.311401367188	-82.31599426269531	-983.9967651367188	1346.117431640625	-9.644465446472168	-1032.191162109375	1073.007080078125	69.38700866699219	-1078.543334960938	1061.12451171875	21.24896049499512	-968.2784423828125	849.5533447265625	64.55312347412109	-1046.69873046875	852.328369140625	105.9236755371094	-1042.24853515625	1016.464233398438	84.60101318359375	-994.1517333984375	697.8483276367188	87.09638214111328	-971.7088012695312	754.375	86.80681610107422	-1045.140747070312	764.8299560546875	113.8331680297852	-895.3731689453125	1618.79248046875	-144.0067138671875	-753.8319091796875	1622.68994140625	-294.7783813476562	-758.9015502929688	1619.126342773438	-164.5351715087891	-904.3890380859375	1629.90234375	-321.19091796875	-954.7743530273438	845.2109375	-436.1195373535156	-992.0343017578125	846.7489624023438	-32.69235992431641	-898.7053833007812	894.6598510742188	-100.2642593383789	-860.943115234375	875.8306884765625	-351.7453002929688	-1017.825988769531	432.1618347167969	-389.2490539550781	-962.9739990234375	578.21484375	-410.4823303222656	-1165.537109375	39.80636215209961	-376.9046936035156	-1053.645263671875	284.9227600097656	-397.9806213378906	-940.3822631835938	46.55929946899414	-288.19921875	-1018.62890625	51.72202301025391	-266.5087280273438	-1011.485290527344	46.88800811767578	-379.8099060058594	-1215.369384765625	46.84198760986328	-316.7740173339844	-798.6887817382812	507.2488708496094	-10.41926193237305	-896.3218994140625	741.273193359375	-13.68273544311523	-1047.7548828125	147.3666076660156	23.03785133361816	-856.06494140625	376.7239074707031	12.50467967987061	-866.6333618164062	60.48272705078125	-8.493916511535645	-916.7445678710938	69.02753448486328	-49.83162689208984	-939.8494262695312	85.61023712158203	54.06658554077148	-1101.822143554688	174.2593078613281	-26.97287940979004	
